<?xml version="1.0" encoding="iso-8859-1"?>
<!-- Generator: Adobe Illustrator 19.0.0, SVG Export Plug-In . SVG Version: 6.00 Build 0)  -->
<svg version="1.1" id="Capa_1" xmlns="http://www.w3.org/2000/svg" xmlns:xlink="http://www.w3.org/1999/xlink" x="0px" y="0px"
	 viewBox="0 0 511.667 511.667" style="enable-background:new 0 0 511.667 511.667;" xml:space="preserve">
<path style="fill:#5C9EFF;" d="M491.665,203.869H19.986c-8.822,0-15.989,7.159-15.989,15.989c0,6.831,4.31,12.62,10.337,14.908
	c-6.059,64.772-10.337,208.94-10.337,208.94c0,8.869,7.112,15.989,15.989,15.989h471.679c8.877,0,15.988-7.12,15.988-15.989V219.858
	C507.653,210.985,500.542,203.869,491.665,203.869z M255.825,355.766c-39.73,0-71.951-10.711-71.951-23.983
	c0-13.272,32.22-23.983,71.951-23.983s71.952,10.711,71.952,23.983C327.777,345.055,295.556,355.766,255.825,355.766z"/>
<g>
	<path style="fill:#2287FF;" d="M491.665,203.869h-15.99c8.877,0,15.99,7.116,15.99,15.989v223.848
		c0,8.869-7.113,15.989-15.99,15.989h15.99c8.877,0,15.988-7.12,15.988-15.989V219.858
		C507.653,210.985,500.542,203.869,491.665,203.869z"/>
	<path style="fill:#2287FF;" d="M11.983,219.858c0-8.83,7.167-15.989,15.989-15.989h-7.986c-8.822,0-15.989,7.159-15.989,15.989
		c0,6.831,4.31,12.62,10.337,14.908c-0.031,0.347-0.062,0.73-0.094,1.082h7.986c0.031-0.352,0.062-0.734,0.094-1.082
		C16.292,232.478,11.983,226.689,11.983,219.858z"/>
</g>
<polygon style="fill:#D7E9FF;" points="475.675,51.973 35.975,51.973 51.964,19.994 459.687,19.994 "/>
<path style="fill:#FFFFFF;" d="M475.675,203.869v15.989h-439.7v-15.989V51.973h439.7V203.869z"/>
<path style="fill:#94C1FF;" d="M131.91,123.924c4.396,0,7.994-3.6,7.994-7.995c0-4.395-3.599-7.994-7.994-7.994
	c-4.395,0-7.995,3.599-7.995,7.994C123.915,120.324,127.514,123.924,131.91,123.924z M195.866,135.915
	c0,28.699-23.266,51.964-51.965,51.964s-51.964-23.265-51.964-51.964s23.265-51.964,51.964-51.964S195.866,107.216,195.866,135.915z
	"/>
<path style="fill:#5C9EFF;" d="M143.893,99.94c-25.974,0-47.436,19.073-51.285,43.97c-0.406-2.615-0.679-5.27-0.679-7.995
	c0-28.699,23.265-51.964,51.964-51.964s51.965,23.265,51.965,51.964c0,2.725-0.273,5.379-0.679,7.995
	C191.322,119.013,169.868,99.94,143.893,99.94z"/>
<path style="fill:#94C1FF;" d="M19.986,235.848h471.679c8.877,0,15.988,7.116,15.988,15.989v223.847
	c0,8.869-7.111,15.989-15.988,15.989H19.986c-8.877,0-15.989-7.12-15.989-15.989V219.858
	C3.997,228.731,11.109,235.848,19.986,235.848z M327.776,363.76c0-13.271-32.221-23.983-71.952-23.983
	c-39.73,0-71.951,10.712-71.951,23.983c0,13.272,32.22,23.984,71.951,23.984C295.556,387.744,327.776,377.032,327.776,363.76z"/>
<path style="fill:#5C9EFF;" d="M491.665,235.848h-15.99c8.877,0,15.99,7.116,15.99,15.989v223.847
	c0,8.869-7.113,15.989-15.99,15.989h15.99c8.877,0,15.988-7.12,15.988-15.989V251.836
	C507.653,242.964,500.542,235.848,491.665,235.848z"/>
<path style="fill:#D7E9FF;" d="M19.986,475.684V235.848c-8.877,0-15.989-7.116-15.989-15.989v255.825
	c0,8.869,7.112,15.989,15.989,15.989h15.989C27.098,491.673,19.986,484.553,19.986,475.684z"/>
<path style="fill:#FFFFFF;" d="M139.904,115.929c0,4.396-3.599,7.995-7.994,7.995c-4.395,0-7.995-3.6-7.995-7.995
	c0-4.395,3.6-7.994,7.995-7.994C136.305,107.935,139.904,111.534,139.904,115.929z"/>
<path style="fill:#D7E9FF;" d="M255.825,339.776c39.731,0,71.952,10.712,71.952,23.983c0,13.272-32.221,23.984-71.952,23.984
	c-39.73,0-71.951-10.712-71.951-23.984C183.874,350.488,216.094,339.776,255.825,339.776z"/>
<path style="fill:#FFFFFF;" d="M199.863,363.76c0-12.366,27.989-22.5,63.957-23.827c-2.631-0.094-5.293-0.156-7.995-0.156
	c-39.73,0-71.951,10.712-71.951,23.983c0,13.272,32.22,23.984,71.951,23.984c2.702,0,5.364-0.062,7.995-0.156
	C227.852,386.261,199.863,376.127,199.863,363.76z"/>
<path style="fill:#94C1FF;" d="M311.786,363.76c0,12.367-27.988,22.501-63.956,23.828c2.631,0.094,5.293,0.156,7.994,0.156
	c39.731,0,71.952-10.712,71.952-23.984c0-13.271-32.221-23.983-71.952-23.983c-2.701,0-5.363,0.062-7.994,0.156
	C283.798,341.26,311.786,351.394,311.786,363.76z"/>
<g>
	<rect x="35.973" y="203.872" style="fill:#D7E9FF;" width="439.7" height="15.989"/>
	<path style="fill:#D7E9FF;" d="M187.567,163.6l-31.682-31.682l-44.626,44.626c0,0,15.685,13.756,38.154,11.047
		S187.567,163.6,187.567,163.6z"/>
	<polygon style="fill:#D7E9FF;" points="133.9,153.903 111.259,176.544 98.901,160.922 119.91,139.913 	"/>
</g>
<g>
	<path style="fill:#116FFF;" d="M507.653,479.682c-2.209,0-3.996-1.788-3.996-3.998V251.836c0-2.209,1.787-3.997,3.996-3.997
		s3.998,1.788,3.998,3.997v223.847C511.651,477.894,509.862,479.682,507.653,479.682z"/>
	<path style="fill:#116FFF;" d="M491.681,495.67H19.986c-2.21,0-3.998-1.787-3.998-3.997c0-2.209,1.788-3.997,3.998-3.997h471.695
		c2.209,0,3.996,1.788,3.996,3.997C495.677,493.883,493.89,495.67,491.681,495.67z"/>
	<path style="fill:#116FFF;" d="M3.997,479.682c-2.209,0-3.997-1.788-3.997-3.998V219.858c0-2.209,1.788-3.997,3.997-3.997
		s3.997,1.788,3.997,3.997v255.825C7.994,477.894,6.206,479.682,3.997,479.682z"/>
	<path style="fill:#116FFF;" d="M475.675,207.866c-2.209,0-3.996-1.788-3.996-3.997V55.97H39.964v147.899
		c0,2.209-1.788,3.997-3.998,3.997s-3.997-1.788-3.997-3.997V51.973c0-2.209,1.788-3.997,3.997-3.997h439.708
		c2.211,0,3.998,1.788,3.998,3.997v151.896C479.673,206.079,477.886,207.866,475.675,207.866z"/>
	<path style="fill:#116FFF;" d="M143.893,191.877c-30.854,0-55.961-25.104-55.961-55.962s25.108-55.962,55.961-55.962
		c30.854,0,55.962,25.104,55.962,55.962S174.748,191.877,143.893,191.877z M143.893,87.948c-26.45,0-47.967,21.517-47.967,47.967
		s21.517,47.967,47.967,47.967c26.451,0,47.968-21.517,47.968-47.967S170.344,87.948,143.893,87.948z"/>
	<path style="fill:#116FFF;" d="M419.714,119.926H243.826c-2.21,0-3.998-1.788-3.998-3.998c0-2.209,1.788-3.997,3.998-3.997h175.888
		c2.209,0,3.996,1.788,3.996,3.997C423.71,118.139,421.923,119.926,419.714,119.926z"/>
	<path style="fill:#116FFF;" d="M419.714,143.91H243.826c-2.21,0-3.998-1.788-3.998-3.997c0-2.21,1.788-3.998,3.998-3.998h175.888
		c2.209,0,3.996,1.788,3.996,3.998C423.71,142.122,421.923,143.91,419.714,143.91z"/>
	<path style="fill:#116FFF;" d="M331.772,167.894h-87.947c-2.21,0-3.998-1.788-3.998-3.997s1.788-3.997,3.998-3.997h87.947
		c2.211,0,3.998,1.788,3.998,3.997S333.983,167.894,331.772,167.894z"/>
	<path style="fill:#116FFF;" d="M111.259,180.541c-1.022,0-2.045-0.39-2.826-1.171c-1.562-1.562-1.562-4.091,0-5.652l44.626-44.626
		c1.562-1.562,4.091-1.562,5.652,0c1.561,1.562,1.562,4.091,0,5.652l-44.626,44.626
		C113.305,180.151,112.282,180.541,111.259,180.541z"/>
	<path style="fill:#116FFF;" d="M187.567,167.597c-1.023,0-2.046-0.39-2.826-1.171l-31.682-31.682c-1.562-1.562-1.562-4.091,0-5.652
		c1.562-1.561,4.091-1.562,5.652,0l31.682,31.682c1.562,1.562,1.562,4.091,0,5.652C189.612,167.207,188.589,167.597,187.567,167.597
		z"/>
	<path style="fill:#116FFF;" d="M98.901,164.919c-1.023,0-2.046-0.39-2.826-1.171c-1.562-1.562-1.562-4.091,0-5.652l21.009-21.009
		c1.562-1.561,4.091-1.561,5.652,0c1.562,1.562,1.562,4.091,0,5.653l-21.009,21.009C100.946,164.529,99.923,164.919,98.901,164.919z
		"/>
	<path style="fill:#116FFF;" d="M133.9,157.9c-1.022,0-2.045-0.391-2.826-1.171l-13.99-13.99c-1.562-1.562-1.562-4.091,0-5.653
		c1.562-1.561,4.091-1.561,5.652,0l13.99,13.991c1.562,1.562,1.562,4.091,0,5.652C135.946,157.51,134.923,157.9,133.9,157.9z"/>
	<path style="fill:#116FFF;" d="M131.902,127.921c-6.613,0-11.992-5.379-11.992-11.992c0-6.612,5.379-11.991,11.992-11.991
		c6.612,0,11.991,5.379,11.991,11.991C143.893,122.542,138.514,127.921,131.902,127.921z M131.902,111.932
		c-2.202,0-3.998,1.792-3.998,3.997c0,2.206,1.795,3.998,3.998,3.998c2.201,0,3.997-1.792,3.997-3.998
		C135.899,113.724,134.103,111.932,131.902,111.932z"/>
	<path style="fill:#116FFF;" d="M19.986,239.845C8.962,239.845,0,230.878,0,219.859c0-2.209,1.788-3.997,3.997-3.997
		s3.997,1.788,3.997,3.997c0,6.612,5.379,11.992,11.992,11.992c2.209,0,3.997,1.788,3.997,3.998
		C23.983,238.057,22.195,239.845,19.986,239.845z"/>
	<path style="fill:#116FFF;" d="M19.986,495.67C8.962,495.67,0,486.708,0,475.684c0-2.209,1.788-3.997,3.997-3.997
		s3.997,1.788,3.997,3.997c0,6.613,5.379,11.992,11.992,11.992c2.209,0,3.997,1.788,3.997,3.997
		C23.983,493.883,22.195,495.67,19.986,495.67z"/>
	<path style="fill:#116FFF;" d="M491.681,495.67c-2.209,0-3.998-1.787-3.998-3.997c0-2.209,1.789-3.997,3.998-3.997
		c6.611,0,11.992-5.379,11.992-11.992c0-2.209,1.787-3.997,3.996-3.997s3.998,1.788,3.998,3.997
		C511.667,486.708,502.704,495.67,491.681,495.67z"/>
	<path style="fill:#116FFF;" d="M507.669,255.834c-2.209,0-3.996-1.788-3.996-3.998c0-6.613-5.381-11.992-11.992-11.992
		c-2.209,0-3.998-1.788-3.998-3.997c0-2.21,1.789-3.998,3.998-3.998c11.023,0,19.986,8.966,19.986,19.986
		C511.667,254.046,509.878,255.834,507.669,255.834z"/>
	<path style="fill:#116FFF;" d="M507.669,223.855c-2.209,0-3.996-1.788-3.996-3.997c0-6.613-5.381-11.992-11.992-11.992
		c-2.209,0-3.998-1.788-3.998-3.997s1.789-3.997,3.998-3.997c11.023,0,19.986,8.966,19.986,19.986
		C511.667,222.067,509.878,223.855,507.669,223.855z"/>
	<path style="fill:#116FFF;" d="M3.997,223.855c-2.209,0-3.997-1.788-3.997-3.997c0-11.02,8.962-19.986,19.986-19.986
		c2.209,0,3.997,1.788,3.997,3.997s-1.788,3.997-3.997,3.997c-6.613,0-11.992,5.379-11.992,11.992
		C7.994,222.067,6.206,223.855,3.997,223.855z"/>
	<path style="fill:#116FFF;" d="M491.681,239.845H19.986c-2.21,0-3.998-1.788-3.998-3.997c0-2.21,1.788-3.998,3.998-3.998h471.695
		c2.209,0,3.996,1.788,3.996,3.998C495.677,238.057,493.89,239.845,491.681,239.845z"/>
	<path style="fill:#116FFF;" d="M507.669,231.85c-2.209,0-3.996-1.788-3.996-3.998v-7.994c0-2.209,1.787-3.997,3.996-3.997
		s3.998,1.788,3.998,3.997v7.994C511.667,230.062,509.878,231.85,507.669,231.85z"/>
	<path style="fill:#116FFF;" d="M483.671,223.855H27.972c-2.209,0-3.997-1.788-3.997-3.997s1.788-3.997,3.997-3.997h455.699
		c2.209,0,3.996,1.788,3.996,3.997S485.88,223.855,483.671,223.855z"/>
	<path style="fill:#116FFF;" d="M467.681,39.98H43.969c-2.209,0-3.997-1.788-3.997-3.997c0-2.209,1.788-3.997,3.997-3.997H467.68
		c2.209,0,3.998,1.788,3.998,3.997C471.679,38.193,469.89,39.98,467.681,39.98z"/>
	<path style="fill:#116FFF;" d="M459.687,23.992H51.964c-2.209,0-3.998-1.788-3.998-3.998c0-2.209,1.788-3.997,3.998-3.997h407.723
		c2.209,0,3.998,1.788,3.998,3.997C463.685,22.204,461.895,23.992,459.687,23.992z"/>
	<path style="fill:#116FFF;" d="M483.671,263.828h-8.004c-2.209,0-3.996-1.787-3.996-3.997s1.787-3.997,3.996-3.997h8.004
		c2.209,0,3.996,1.787,3.996,3.997S485.88,263.828,483.671,263.828z M459.679,263.828h-15.99c-2.209,0-3.996-1.787-3.996-3.997
		s1.787-3.997,3.996-3.997h15.99c2.209,0,3.998,1.787,3.998,3.997S461.888,263.828,459.679,263.828z M427.7,263.828h-15.988
		c-2.211,0-3.998-1.787-3.998-3.997s1.787-3.997,3.998-3.997H427.7c2.209,0,3.998,1.787,3.998,3.997S429.909,263.828,427.7,263.828z
		 M395.722,263.828h-15.989c-2.209,0-3.998-1.787-3.998-3.997s1.789-3.997,3.998-3.997h15.988c2.209,0,3.998,1.787,3.998,3.997
		S397.931,263.828,395.722,263.828z M363.743,263.828h-15.988c-2.209,0-3.998-1.787-3.998-3.997s1.789-3.997,3.998-3.997h15.988
		c2.211,0,3.998,1.787,3.998,3.997S365.954,263.828,363.743,263.828z M331.765,263.828h-15.988c-2.209,0-3.998-1.787-3.998-3.997
		s1.789-3.997,3.998-3.997h15.988c2.211,0,3.998,1.787,3.998,3.997S333.976,263.828,331.765,263.828z M299.788,263.828h-15.99
		c-2.209,0-3.996-1.787-3.996-3.997s1.787-3.997,3.996-3.997h15.99c2.209,0,3.996,1.787,3.996,3.997
		S301.997,263.828,299.788,263.828z M267.81,263.828h-15.99c-2.209,0-3.997-1.787-3.997-3.997s1.788-3.997,3.997-3.997h15.99
		c2.209,0,3.996,1.787,3.996,3.997S270.019,263.828,267.81,263.828z M235.831,263.828h-15.989c-2.209,0-3.998-1.787-3.998-3.997
		s1.788-3.997,3.998-3.997h15.989c2.21,0,3.998,1.787,3.998,3.997S238.041,263.828,235.831,263.828z M203.853,263.828h-15.989
		c-2.21,0-3.998-1.787-3.998-3.997s1.788-3.997,3.998-3.997h15.989c2.209,0,3.998,1.787,3.998,3.997
		S206.062,263.828,203.853,263.828z M171.875,263.828h-15.989c-2.209,0-3.997-1.787-3.997-3.997s1.788-3.997,3.997-3.997h15.989
		c2.209,0,3.997,1.787,3.997,3.997S174.083,263.828,171.875,263.828z M139.896,263.828h-15.989c-2.209,0-3.997-1.787-3.997-3.997
		s1.788-3.997,3.997-3.997h15.989c2.209,0,3.997,1.787,3.997,3.997S142.105,263.828,139.896,263.828z M107.918,263.828H91.929
		c-2.209,0-3.997-1.787-3.997-3.997s1.788-3.997,3.997-3.997h15.989c2.209,0,3.998,1.787,3.998,3.997
		S110.127,263.828,107.918,263.828z M75.94,263.828H59.951c-2.209,0-3.997-1.787-3.997-3.997s1.788-3.997,3.997-3.997H75.94
		c2.209,0,3.997,1.787,3.997,3.997S78.149,263.828,75.94,263.828z M43.961,263.828H27.972c-2.209,0-3.997-1.787-3.997-3.997
		s1.788-3.997,3.997-3.997h15.989c2.209,0,3.997,1.787,3.997,3.997S46.171,263.828,43.961,263.828z"/>
	<path style="fill:#116FFF;" d="M483.671,471.686h-8.004c-2.209,0-3.996-1.788-3.996-3.997c0-2.209,1.787-3.997,3.996-3.997h8.004
		c2.209,0,3.996,1.788,3.996,3.997C487.667,469.898,485.88,471.686,483.671,471.686z M459.679,471.686h-15.99
		c-2.209,0-3.996-1.788-3.996-3.997c0-2.209,1.787-3.997,3.996-3.997h15.99c2.209,0,3.998,1.788,3.998,3.997
		C463.677,469.898,461.888,471.686,459.679,471.686z M427.7,471.686h-15.988c-2.211,0-3.998-1.788-3.998-3.997
		c0-2.209,1.787-3.997,3.998-3.997H427.7c2.209,0,3.998,1.788,3.998,3.997C431.698,469.898,429.909,471.686,427.7,471.686z
		 M395.722,471.686h-15.989c-2.209,0-3.998-1.788-3.998-3.997c0-2.209,1.789-3.997,3.998-3.997h15.988
		c2.209,0,3.998,1.788,3.998,3.997C399.719,469.898,397.931,471.686,395.722,471.686z M363.743,471.686h-15.988
		c-2.209,0-3.998-1.788-3.998-3.997c0-2.209,1.789-3.997,3.998-3.997h15.988c2.211,0,3.998,1.788,3.998,3.997
		C367.741,469.898,365.954,471.686,363.743,471.686z M331.765,471.686h-15.988c-2.209,0-3.998-1.788-3.998-3.997
		c0-2.209,1.789-3.997,3.998-3.997h15.988c2.211,0,3.998,1.788,3.998,3.997C335.763,469.898,333.976,471.686,331.765,471.686z
		 M299.788,471.686h-15.99c-2.209,0-3.996-1.788-3.996-3.997c0-2.209,1.787-3.997,3.996-3.997h15.99
		c2.209,0,3.996,1.788,3.996,3.997C303.784,469.898,301.997,471.686,299.788,471.686z M267.81,471.686h-15.99
		c-2.209,0-3.997-1.788-3.997-3.997c0-2.209,1.788-3.997,3.997-3.997h15.99c2.209,0,3.996,1.788,3.996,3.997
		C271.806,469.898,270.019,471.686,267.81,471.686z M235.831,471.686h-15.989c-2.209,0-3.998-1.788-3.998-3.997
		c0-2.209,1.788-3.997,3.998-3.997h15.989c2.21,0,3.998,1.788,3.998,3.997C239.829,469.898,238.041,471.686,235.831,471.686z
		 M203.853,471.686h-15.989c-2.21,0-3.998-1.788-3.998-3.997c0-2.209,1.788-3.997,3.998-3.997h15.989
		c2.209,0,3.998,1.788,3.998,3.997C207.851,469.898,206.062,471.686,203.853,471.686z M171.875,471.686h-15.989
		c-2.209,0-3.997-1.788-3.997-3.997c0-2.209,1.788-3.997,3.997-3.997h15.989c2.209,0,3.997,1.788,3.997,3.997
		C175.872,469.898,174.083,471.686,171.875,471.686z M139.896,471.686h-15.989c-2.209,0-3.997-1.788-3.997-3.997
		c0-2.209,1.788-3.997,3.997-3.997h15.989c2.209,0,3.997,1.788,3.997,3.997C143.893,469.898,142.105,471.686,139.896,471.686z
		 M107.918,471.686H91.929c-2.209,0-3.997-1.788-3.997-3.997c0-2.209,1.788-3.997,3.997-3.997h15.989
		c2.209,0,3.998,1.788,3.998,3.997C111.916,469.898,110.127,471.686,107.918,471.686z M75.94,471.686H59.951
		c-2.209,0-3.997-1.788-3.997-3.997c0-2.209,1.788-3.997,3.997-3.997H75.94c2.209,0,3.997,1.788,3.997,3.997
		C79.937,469.898,78.149,471.686,75.94,471.686z M43.961,471.686H27.972c-2.209,0-3.997-1.788-3.997-3.997
		c0-2.209,1.788-3.997,3.997-3.997h15.989c2.209,0,3.997,1.788,3.997,3.997C47.958,469.898,46.171,471.686,43.961,471.686z"/>
	<path style="fill:#116FFF;" d="M255.825,391.741c-36.818,0-75.948-9.806-75.948-27.981s39.13-27.98,75.948-27.98
		c36.819,0,75.948,9.806,75.948,27.98C331.772,381.936,292.644,391.741,255.825,391.741z M255.825,343.773
		c-42.104,0-67.953,11.641-67.953,19.986c0,8.347,25.85,19.986,67.953,19.986c42.104,0,67.954-11.64,67.954-19.986
		C323.778,355.414,297.929,343.773,255.825,343.773z"/>
	<path style="fill:#116FFF;" d="M287.804,367.758h-63.957c-2.209,0-3.997-1.788-3.997-3.998c0-2.209,1.788-3.997,3.997-3.997h63.957
		c2.209,0,3.996,1.788,3.996,3.997C291.8,365.97,290.013,367.758,287.804,367.758z"/>
</g>
<g>
</g>
<g>
</g>
<g>
</g>
<g>
</g>
<g>
</g>
<g>
</g>
<g>
</g>
<g>
</g>
<g>
</g>
<g>
</g>
<g>
</g>
<g>
</g>
<g>
</g>
<g>
</g>
<g>
</g>
</svg>
